<svg xmlns="http://www.w3.org/2000/svg" width="780" viewBox="0 0 780 780" height="780" version="1.0"><path fill="#FFF" d="M 33.136719 766.613281 C 29.457031 766.613281 25.785156 765.210938 22.980469 762.40625 C 17.367188 756.792969 17.367188 747.699219 22.980469 742.089844 L 741.371094 23.699219 C 746.984375 18.085938 756.074219 18.085938 761.6875 23.699219 C 767.300781 29.308594 767.300781 38.402344 761.6875 44.015625 L 43.296875 762.40625 C 40.488281 765.210938 36.808594 766.613281 33.136719 766.613281"/><path fill="#FFF" d="M 751.527344 766.613281 C 747.859375 766.613281 744.175781 765.210938 741.371094 762.40625 L 22.980469 44.015625 C 17.367188 38.402344 17.367188 29.308594 22.980469 23.699219 C 28.59375 18.085938 37.683594 18.085938 43.296875 23.699219 L 761.6875 742.089844 C 767.300781 747.699219 767.300781 756.792969 761.6875 762.40625 C 758.882812 765.210938 755.199219 766.613281 751.527344 766.613281"/></svg>