<svg xmlns="http://www.w3.org/2000/svg" width="780" viewBox="0 0 780 780" height="780" version="1.0"><defs><clipPath id="a"><path d="M 473 476 L 762 476 L 762 765.050781 L 473 765.050781 Z M 473 476"/></clipPath></defs><path fill="#FFF" d="M 324.800781 613.953125 C 318.945312 613.953125 313.09375 613.777344 307.246094 613.421875 C 301.402344 613.066406 295.574219 612.53125 289.761719 611.816406 C 283.945312 611.101562 278.160156 610.210938 272.402344 609.140625 C 266.644531 608.070312 260.925781 606.824219 255.242188 605.402344 C 249.5625 603.984375 243.929688 602.390625 238.347656 600.621094 C 232.761719 598.855469 227.238281 596.921875 221.773438 594.816406 C 216.308594 592.707031 210.914062 590.4375 205.585938 588 C 200.261719 585.5625 195.015625 582.964844 189.851562 580.207031 C 184.683594 577.445312 179.609375 574.53125 174.621094 571.460938 C 169.632812 568.390625 164.746094 565.171875 159.957031 561.800781 C 155.167969 558.429688 150.488281 554.914062 145.914062 551.253906 C 141.339844 547.597656 136.882812 543.800781 132.542969 539.871094 C 128.203125 535.9375 123.984375 531.875 119.894531 527.6875 C 115.804688 523.496094 111.84375 519.183594 108.019531 514.75 C 104.191406 510.316406 100.507812 505.769531 96.957031 501.109375 C 93.410156 496.449219 90.011719 491.683594 86.757812 486.8125 C 83.5 481.945312 80.398438 476.980469 77.449219 471.921875 C 74.5 466.863281 71.707031 461.71875 69.074219 456.484375 C 66.441406 451.253906 63.96875 445.949219 61.660156 440.566406 C 59.351562 435.183594 57.210938 429.734375 55.238281 424.222656 C 53.265625 418.707031 51.460938 413.136719 49.832031 407.511719 C 48.199219 401.886719 46.742188 396.21875 45.457031 390.503906 C 44.175781 384.789062 43.066406 379.042969 42.136719 373.261719 C 41.207031 367.476562 40.453125 361.671875 39.878906 355.84375 C 39.304688 350.015625 38.910156 344.175781 38.695312 338.324219 C 38.480469 332.472656 38.445312 326.617188 38.585938 320.761719 C 38.730469 314.90625 39.054688 309.0625 39.558594 303.226562 C 40.058594 297.394531 40.742188 291.578125 41.601562 285.785156 C 42.460938 279.992188 43.496094 274.230469 44.710938 268.5 C 45.921875 262.773438 47.3125 257.085938 48.875 251.441406 C 50.4375 245.796875 52.171875 240.207031 54.074219 234.667969 C 55.980469 229.128906 58.054688 223.65625 60.296875 218.246094 C 62.539062 212.835938 64.945312 207.5 67.515625 202.234375 C 70.085938 196.972656 72.8125 191.792969 75.699219 186.699219 C 78.585938 181.601562 81.628906 176.601562 84.824219 171.691406 C 88.019531 166.785156 91.359375 161.976562 94.851562 157.273438 C 98.339844 152.570312 101.96875 147.980469 105.742188 143.5 C 109.511719 139.019531 113.417969 134.660156 117.457031 130.417969 C 121.496094 126.175781 125.664062 122.066406 129.953125 118.078125 C 134.246094 114.09375 138.65625 110.246094 143.183594 106.53125 C 147.714844 102.816406 152.351562 99.246094 157.097656 95.816406 C 161.847656 92.386719 166.695312 89.105469 171.644531 85.972656 C 176.59375 82.84375 181.632812 79.867188 186.765625 77.042969 C 191.894531 74.222656 197.109375 71.558594 202.40625 69.058594 C 207.699219 66.554688 213.066406 64.21875 218.503906 62.042969 C 223.945312 59.871094 229.445312 57.867188 235.003906 56.035156 C 240.566406 54.199219 246.179688 52.535156 251.84375 51.046875 C 257.507812 49.554688 263.210938 48.238281 268.957031 47.101562 C 274.699219 45.960938 280.476562 44.996094 286.277344 44.210938 C 292.082031 43.425781 297.902344 42.820312 303.746094 42.390625 C 309.585938 41.960938 315.433594 41.714844 321.289062 41.644531 C 327.148438 41.574219 333 41.6875 338.847656 41.976562 C 344.699219 42.265625 350.535156 42.738281 356.355469 43.386719 C 362.175781 44.035156 367.96875 44.859375 373.738281 45.863281 C 379.507812 46.867188 385.242188 48.050781 390.941406 49.40625 C 396.636719 50.761719 402.289062 52.292969 407.890625 53.996094 C 413.496094 55.699219 419.039062 57.570312 424.527344 59.617188 C 430.015625 61.660156 435.4375 63.871094 440.789062 66.246094 C 446.144531 68.621094 451.417969 71.160156 456.613281 73.863281 C 461.8125 76.5625 466.921875 79.417969 471.941406 82.433594 C 476.964844 85.449219 481.886719 88.613281 486.714844 91.929688 C 491.542969 95.246094 496.261719 98.707031 500.875 102.3125 C 505.492188 105.921875 509.992188 109.664062 514.375 113.546875 C 518.761719 117.429688 523.019531 121.441406 527.160156 125.585938 C 529.644531 128.070312 532.082031 130.597656 534.476562 133.167969 C 536.867188 135.742188 539.210938 138.355469 541.507812 141.015625 C 543.800781 143.671875 546.046875 146.371094 548.246094 149.113281 C 550.441406 151.855469 552.585938 154.632812 554.679688 157.453125 C 556.773438 160.273438 558.816406 163.132812 560.804688 166.027344 C 562.792969 168.921875 564.726562 171.855469 566.605469 174.820312 C 568.488281 177.789062 570.3125 180.789062 572.082031 183.820312 C 573.851562 186.855469 575.566406 189.921875 577.222656 193.015625 C 578.878906 196.113281 580.480469 199.242188 582.019531 202.398438 C 583.5625 205.550781 585.046875 208.734375 586.46875 211.945312 C 587.894531 215.15625 589.261719 218.390625 590.566406 221.652344 C 591.871094 224.914062 593.117188 228.199219 594.300781 231.503906 C 595.484375 234.8125 596.609375 238.136719 597.667969 241.488281 C 598.730469 244.835938 599.730469 248.199219 600.667969 251.585938 C 601.605469 254.972656 602.480469 258.371094 603.292969 261.789062 C 604.105469 265.207031 604.855469 268.636719 605.542969 272.082031 C 606.226562 275.527344 606.851562 278.984375 607.410156 282.449219 C 607.96875 285.917969 608.460938 289.394531 608.894531 292.878906 C 609.324219 296.367188 609.691406 299.859375 609.992188 303.359375 C 610.292969 306.859375 610.53125 310.363281 610.703125 313.871094 C 610.875 317.378906 610.984375 320.886719 611.027344 324.398438 C 611.070312 327.914062 611.050781 331.425781 610.964844 334.933594 C 610.878906 338.445312 610.730469 341.957031 610.515625 345.460938 C 610.296875 348.96875 610.019531 352.46875 609.675781 355.964844 C 609.332031 359.457031 608.921875 362.945312 608.449219 366.425781 C 607.976562 369.90625 607.441406 373.378906 606.839844 376.839844 C 606.238281 380.300781 605.574219 383.746094 604.847656 387.183594 C 604.121094 390.621094 603.332031 394.042969 602.476562 397.449219 C 601.625 400.855469 600.707031 404.246094 599.730469 407.621094 C 598.75 410.992188 597.710938 414.347656 596.609375 417.683594 C 595.507812 421.015625 594.34375 424.332031 593.117188 427.621094 C 591.894531 430.914062 590.609375 434.183594 589.265625 437.429688 C 587.921875 440.671875 586.519531 443.890625 585.054688 447.085938 C 583.589844 450.277344 582.070312 453.445312 580.488281 456.582031 C 578.910156 459.71875 577.273438 462.824219 575.578125 465.902344 C 573.886719 468.976562 572.136719 472.023438 570.328125 475.035156 C 568.523438 478.046875 566.660156 481.027344 564.746094 483.96875 C 562.828125 486.914062 560.859375 489.820312 558.835938 492.691406 C 556.8125 495.5625 554.738281 498.394531 552.609375 501.191406 C 550.480469 503.984375 548.304688 506.738281 546.074219 509.453125 C 543.84375 512.167969 541.566406 514.839844 539.238281 517.472656 C 536.914062 520.101562 534.535156 522.6875 532.113281 525.230469 C 529.691406 527.773438 527.222656 530.273438 524.707031 532.722656 C 522.191406 535.175781 519.632812 537.582031 517.03125 539.9375 C 514.425781 542.296875 511.78125 544.605469 509.09375 546.867188 C 506.402344 549.125 503.675781 551.335938 500.90625 553.496094 C 498.132812 555.65625 495.324219 557.761719 492.476562 559.820312 C 489.628906 561.875 486.746094 563.878906 483.824219 565.828125 C 480.902344 567.777344 477.945312 569.675781 474.957031 571.515625 C 471.964844 573.355469 468.941406 575.140625 465.882812 576.871094 C 462.828125 578.601562 459.738281 580.273438 456.621094 581.890625 C 453.5 583.503906 450.355469 585.0625 447.179688 586.5625 C 444.003906 588.0625 440.800781 589.503906 437.570312 590.886719 C 434.339844 592.269531 431.089844 593.589844 427.808594 594.851562 C 424.53125 596.113281 421.230469 597.316406 417.910156 598.457031 C 414.589844 599.597656 411.246094 600.675781 407.882812 601.691406 C 404.523438 602.710938 401.144531 603.664062 397.746094 604.558594 C 394.347656 605.449219 390.9375 606.28125 387.507812 607.046875 C 384.082031 607.816406 380.640625 608.519531 377.1875 609.160156 C 373.734375 609.800781 370.269531 610.375 366.796875 610.886719 C 363.320312 611.402344 359.835938 611.851562 356.347656 612.234375 C 352.855469 612.617188 349.359375 612.9375 345.855469 613.195312 C 342.351562 613.449219 338.84375 613.640625 335.335938 613.765625 C 331.824219 613.894531 328.3125 613.953125 324.800781 613.953125 Z M 324.800781 104.675781 C 320.535156 104.664062 316.273438 104.777344 312.011719 105.011719 C 307.753906 105.246094 303.503906 105.605469 299.265625 106.082031 C 295.027344 106.5625 290.804688 107.160156 286.601562 107.878906 C 282.398438 108.601562 278.214844 109.441406 274.058594 110.402344 C 269.902344 111.359375 265.777344 112.4375 261.683594 113.636719 C 257.589844 114.832031 253.53125 116.144531 249.511719 117.574219 C 245.492188 119 241.519531 120.542969 237.585938 122.199219 C 233.65625 123.859375 229.777344 125.625 225.945312 127.503906 C 222.117188 129.382812 218.34375 131.371094 214.628906 133.464844 C 210.914062 135.5625 207.261719 137.761719 203.671875 140.066406 C 200.082031 142.371094 196.5625 144.777344 193.109375 147.28125 C 189.65625 149.789062 186.28125 152.394531 182.976562 155.09375 C 179.675781 157.792969 176.453125 160.585938 173.3125 163.46875 C 170.167969 166.355469 167.113281 169.328125 164.140625 172.386719 C 161.167969 175.445312 158.285156 178.589844 155.492188 181.816406 C 152.703125 185.039062 150.003906 188.34375 147.402344 191.722656 C 144.800781 195.101562 142.296875 198.554688 139.890625 202.078125 C 137.484375 205.601562 135.183594 209.1875 132.984375 212.84375 C 130.785156 216.5 128.691406 220.214844 126.707031 223.988281 C 124.722656 227.765625 122.84375 231.59375 121.078125 235.476562 C 119.3125 239.359375 117.65625 243.289062 116.117188 247.265625 C 114.574219 251.246094 113.148438 255.261719 111.835938 259.324219 C 110.527344 263.382812 109.332031 267.476562 108.253906 271.601562 C 107.179688 275.730469 106.222656 279.886719 105.382812 284.066406 C 104.546875 288.25 103.828125 292.453125 103.230469 296.675781 C 102.632812 300.902344 102.15625 305.136719 101.800781 309.390625 C 101.449219 313.640625 101.214844 317.898438 101.105469 322.164062 C 100.992188 326.425781 101.003906 330.691406 101.140625 334.953125 C 101.273438 339.21875 101.53125 343.472656 101.90625 347.722656 C 102.285156 351.972656 102.785156 356.207031 103.40625 360.425781 C 104.027344 364.648438 104.765625 368.847656 105.628906 373.023438 C 106.488281 377.203125 107.46875 381.351562 108.570312 385.472656 C 109.667969 389.59375 110.882812 393.683594 112.21875 397.734375 C 113.550781 401.785156 115 405.796875 116.5625 409.765625 C 118.125 413.734375 119.800781 417.65625 121.589844 421.527344 C 123.378906 425.402344 125.273438 429.21875 127.28125 432.984375 C 129.289062 436.75 131.402344 440.453125 133.621094 444.09375 C 135.839844 447.738281 138.160156 451.316406 140.585938 454.824219 C 143.007812 458.335938 145.53125 461.773438 148.152344 465.136719 C 150.773438 468.503906 153.488281 471.792969 156.300781 475 C 159.109375 478.210938 162.007812 481.335938 164.996094 484.382812 C 167.984375 487.425781 171.058594 490.378906 174.21875 493.246094 C 177.375 496.113281 180.613281 498.890625 183.929688 501.570312 C 187.246094 504.253906 190.640625 506.839844 194.105469 509.324219 C 197.570312 511.8125 201.105469 514.199219 204.707031 516.484375 C 208.308594 518.769531 211.972656 520.949219 215.699219 523.023438 C 219.425781 525.097656 223.210938 527.066406 227.050781 528.921875 C 230.890625 530.78125 234.78125 532.527344 238.71875 534.164062 C 242.660156 535.796875 246.644531 537.320312 250.671875 538.726562 C 254.699219 540.132812 258.761719 541.421875 262.863281 542.597656 C 266.964844 543.769531 271.09375 544.824219 275.257812 545.761719 C 279.417969 546.699219 283.601562 547.515625 287.8125 548.214844 C 292.019531 548.910156 296.246094 549.488281 300.484375 549.941406 C 304.726562 550.398438 308.976562 550.730469 313.238281 550.941406 C 317.5 551.152344 321.761719 551.242188 326.027344 551.207031 C 330.292969 551.175781 334.554688 551.019531 338.8125 550.742188 C 343.066406 550.464844 347.3125 550.066406 351.546875 549.546875 C 355.78125 549.027344 359.996094 548.382812 364.195312 547.621094 C 368.390625 546.859375 372.5625 545.980469 376.710938 544.976562 C 380.855469 543.976562 384.96875 542.855469 389.050781 541.621094 C 393.136719 540.382812 397.179688 539.03125 401.183594 537.558594 C 405.1875 536.089844 409.148438 534.507812 413.0625 532.8125 C 416.976562 531.117188 420.839844 529.3125 424.648438 527.394531 C 428.460938 525.476562 432.210938 523.453125 435.90625 521.320312 C 439.601562 519.1875 443.230469 516.949219 446.796875 514.609375 C 450.363281 512.269531 453.859375 509.828125 457.289062 507.289062 C 460.714844 504.746094 464.066406 502.109375 467.339844 499.378906 C 470.617188 496.644531 473.808594 493.820312 476.921875 490.90625 C 480.035156 487.988281 483.0625 484.984375 486.003906 481.894531 C 488.945312 478.808594 491.796875 475.636719 494.558594 472.382812 C 497.316406 469.128906 499.980469 465.800781 502.550781 462.394531 C 505.117188 458.988281 507.585938 455.511719 509.957031 451.964844 C 512.328125 448.417969 514.59375 444.808594 516.753906 441.128906 C 518.917969 437.453125 520.972656 433.71875 522.921875 429.921875 C 524.871094 426.128906 526.707031 422.28125 528.433594 418.378906 C 530.164062 414.480469 531.777344 410.535156 533.28125 406.539062 C 534.78125 402.546875 536.167969 398.515625 537.4375 394.445312 C 538.707031 390.371094 539.859375 386.265625 540.894531 382.128906 C 541.929688 377.988281 542.847656 373.824219 543.644531 369.632812 C 544.441406 365.445312 545.117188 361.234375 545.671875 357.003906 C 546.226562 352.773438 546.660156 348.53125 546.972656 344.277344 C 547.285156 340.023438 547.472656 335.765625 547.542969 331.5 C 547.609375 327.234375 547.554688 322.96875 547.378906 318.707031 C 547.203125 314.445312 546.90625 310.191406 546.484375 305.949219 C 546.0625 301.703125 545.523438 297.472656 544.859375 293.257812 C 544.195312 289.046875 543.414062 284.855469 542.511719 280.683594 C 541.609375 276.515625 540.585938 272.375 539.445312 268.265625 C 538.304688 264.15625 537.050781 260.082031 535.675781 256.042969 C 534.300781 252.003906 532.8125 248.007812 531.210938 244.054688 C 529.609375 240.101562 527.894531 236.199219 526.066406 232.34375 C 524.242188 228.488281 522.304688 224.6875 520.261719 220.945312 C 518.214844 217.199219 516.066406 213.519531 513.8125 209.898438 C 511.554688 206.277344 509.199219 202.722656 506.738281 199.238281 C 504.28125 195.753906 501.722656 192.339844 499.070312 189 C 496.414062 185.660156 493.667969 182.402344 490.824219 179.21875 C 487.984375 176.039062 485.054688 172.941406 482.035156 169.925781 C 476.882812 164.773438 471.496094 159.886719 465.867188 155.265625 C 460.238281 150.640625 454.394531 146.304688 448.339844 142.253906 C 442.285156 138.207031 436.046875 134.460938 429.625 131.023438 C 423.203125 127.585938 416.628906 124.472656 409.898438 121.679688 C 403.171875 118.886719 396.324219 116.433594 389.355469 114.3125 C 382.386719 112.191406 375.332031 110.417969 368.1875 108.992188 C 361.042969 107.5625 353.847656 106.488281 346.601562 105.769531 C 339.351562 105.046875 332.085938 104.683594 324.800781 104.675781 Z M 324.800781 104.675781"/><g clip-path="url(#a)"><path fill="#FFF" d="M 730.460938 765.050781 C 728.398438 765.042969 726.359375 764.835938 724.339844 764.425781 C 722.316406 764.015625 720.355469 763.410156 718.457031 762.617188 C 716.554688 761.820312 714.746094 760.847656 713.039062 759.695312 C 711.328125 758.542969 709.746094 757.238281 708.292969 755.777344 L 482.664062 530.304688 C 481.933594 529.574219 481.242188 528.8125 480.589844 528.015625 C 479.933594 527.21875 479.320312 526.394531 478.75 525.535156 C 478.175781 524.679688 477.648438 523.796875 477.164062 522.886719 C 476.675781 521.980469 476.238281 521.046875 475.84375 520.097656 C 475.449219 519.144531 475.101562 518.175781 474.800781 517.1875 C 474.503906 516.203125 474.253906 515.203125 474.050781 514.195312 C 473.851562 513.183594 473.699219 512.164062 473.597656 511.140625 C 473.496094 510.113281 473.445312 509.085938 473.445312 508.054688 C 473.445312 507.023438 473.496094 505.996094 473.597656 504.972656 C 473.699219 503.945312 473.851562 502.929688 474.050781 501.917969 C 474.253906 500.90625 474.503906 499.910156 474.800781 498.921875 C 475.101562 497.9375 475.449219 496.96875 475.84375 496.015625 C 476.238281 495.0625 476.675781 494.132812 477.164062 493.222656 C 477.648438 492.316406 478.175781 491.433594 478.75 490.574219 C 479.320312 489.71875 479.933594 488.890625 480.589844 488.09375 C 481.242188 487.296875 481.933594 486.535156 482.664062 485.808594 C 483.390625 485.078125 484.152344 484.386719 484.949219 483.734375 C 485.746094 483.078125 486.574219 482.46875 487.429688 481.894531 C 488.289062 481.320312 489.171875 480.792969 490.078125 480.308594 C 490.988281 479.820312 491.917969 479.382812 492.871094 478.988281 C 493.824219 478.59375 494.792969 478.246094 495.777344 477.945312 C 496.765625 477.648438 497.761719 477.398438 498.773438 477.195312 C 499.785156 476.996094 500.800781 476.84375 501.828125 476.742188 C 502.851562 476.640625 503.878906 476.589844 504.910156 476.589844 C 505.941406 476.589844 506.96875 476.640625 507.996094 476.742188 C 509.019531 476.84375 510.039062 476.996094 511.050781 477.195312 C 512.058594 477.398438 513.058594 477.648438 514.042969 477.945312 C 515.03125 478.246094 516 478.59375 516.953125 478.988281 C 517.902344 479.382812 518.835938 479.820312 519.742188 480.308594 C 520.652344 480.792969 521.535156 481.320312 522.390625 481.894531 C 523.25 482.46875 524.074219 483.078125 524.871094 483.734375 C 525.667969 484.386719 526.429688 485.078125 527.160156 485.808594 L 752.632812 711.4375 C 753.71875 712.53125 754.71875 713.695312 755.632812 714.9375 C 756.550781 716.179688 757.371094 717.480469 758.09375 718.839844 C 758.816406 720.199219 759.4375 721.609375 759.953125 723.058594 C 760.472656 724.511719 760.878906 725.996094 761.179688 727.507812 C 761.476562 729.019531 761.664062 730.546875 761.738281 732.085938 C 761.8125 733.625 761.773438 735.164062 761.625 736.699219 C 761.472656 738.230469 761.210938 739.746094 760.835938 741.242188 C 760.460938 742.738281 759.980469 744.199219 759.390625 745.621094 C 758.800781 747.046875 758.109375 748.421875 757.320312 749.746094 C 756.527344 751.066406 755.644531 752.324219 754.667969 753.519531 C 753.691406 754.710938 752.632812 755.828125 751.492188 756.867188 C 750.351562 757.902344 749.144531 758.851562 747.863281 759.710938 C 746.582031 760.570312 745.246094 761.332031 743.855469 761.996094 C 742.464844 762.660156 741.03125 763.214844 739.558594 763.667969 C 738.082031 764.121094 736.585938 764.464844 735.058594 764.695312 C 733.535156 764.925781 732.003906 765.046875 730.460938 765.050781 Z M 730.460938 765.050781"/></g></svg>